<?xml version="1.0" standalone="no"?><!DOCTYPE svg PUBLIC "-//W3C//DTD SVG 1.1//EN" "http://www.w3.org/Graphics/SVG/1.1/DTD/svg11.dtd"><svg t="1753258001935" class="icon" viewBox="0 0 1024 1024" version="1.1" xmlns="http://www.w3.org/2000/svg" p-id="6043" width="20" height="20" xmlns:xlink="http://www.w3.org/1999/xlink"><path d="M541.8 114c-7-9.9-18.4-15.8-30.5-15.8-12.1 0-23.5 5.9-30.6 15.8-75.4 106.1-264.5 385.3-264.5 516.8 0 164.2 132.1 297.4 295 297.4 163 0 295-133.1 295-297.4 0.2-131.4-188.9-410.6-264.4-516.8z m-95.5 754.2c-2.5 0-4.7-0.6-6.9-1.4-0.8-0.3-1.6-0.6-2.3-0.8-0.8-0.4-1.5-1-2.2-1.5l-0.2 0.4C339.9 825.7 273 732 273 622.4c0-12.1 9.7-21.8 21.7-21.8s21.7 9.8 21.7 21.8c0 92.8 57.5 171.8 138.5 203.5l2.4 1.9c6.3 3.8 10.8 10.5 10.8 18.5-0.1 12.1-9.8 21.9-21.8 21.9z m86.7 16.3c-12 0-21.7-9.8-21.7-21.8 0-12.1 9.7-21.8 21.7-21.8s21.7 9.8 21.7 21.8c0 12.1-9.7 21.8-21.7 21.8z" fill="#D81E06" p-id="6044"></path></svg>