<?xml version="1.0" standalone="no"?><!DOCTYPE svg PUBLIC "-//W3C//DTD SVG 1.1//EN" "http://www.w3.org/Graphics/SVG/1.1/DTD/svg11.dtd"><svg t="1753258087320" class="icon" viewBox="0 0 1024 1024" version="1.1" xmlns="http://www.w3.org/2000/svg" p-id="8204" width="20" height="20" xmlns:xlink="http://www.w3.org/1999/xlink"><path d="M469.140361 590.121226V23.598896c0-7.310569-0.574624-16.148691 0.623237-22.436528h1.246474c3.503215-2.181329 22.297546-0.623237 28.04566-0.623237h52.975135c8.65676 0 19.203175-0.851342 26.799186 0.623237v1.246474c1.495769 2.417536 0.623237 8.885488 0.623237 12.464737v584.596201c13.905038 3.677098 22.903332 15.995998 33.031555 23.683001 7.565473 5.744374 12.589385 13.322935 18.07387 21.190054a151.370529 151.370529 0 0 1 21.813291 46.742767c1.667782 5.995539 1.059503 10.956504 2.492947 17.450633 1.626648 7.36666 2.3683 20.616676 0.623237 28.668897-1.492652 6.893-0.216886 12.421111-1.86971 18.697106-14.085154 53.492422-43.501935 87.172143-92.862297 105.327034-13.479991 4.960966-28.702552 8.10208-47.366003 8.10208h-11.218264c-16.794988-3.645936-31.631142-4.724136-45.496293-10.595027-36.46559-15.425113-62.869021-44.056616-77.904611-81.020796-3.576133-8.78764-5.185954-18.990028-7.478842-28.668897-3.151086-13.299875-1.698321-36.889391 1.246473-48.612477 1.50574-5.995539 1.320016-10.719674 3.116185-16.204159 10.8786-33.212294 29.483467-57.281702 55.468083-75.411663 10.163124-7.088073 23.494784-16.731417 38.01745-18.697107z m190.087251-155.185985c5.546808-0.085383 12.203601-0.706751 16.827395 0.623237 8.571377 2.464279 14.245326 7.383487 20.566818 11.841501a298.699366 298.699366 0 0 1 39.88716 33.654792c33.642327 33.658531 55.713015 70.463786 75.411664 118.415009 5.854687 14.25966 8.44112 30.580364 12.464738 46.119529q0.617005 5.609132 1.246473 11.218264c3.621006 15.038706 3.733189 32.607754 3.739422 51.105425 0 8.68169 0.373942 17.774716-1.246474 24.929475-1.776225 7.834088-0.006232 14.303287-1.869711 21.813291-6.78705 27.304008-11.658892 52.75077-21.813291 76.034901-30.289313 69.434822-78.827625 116.744734-140.851536 154.562748-15.317916 9.342321-32.580332 14.565046-50.482188 21.190054-16.313849 6.039165-34.963589 9.211441-53.598372 13.711211-10.252247 2.480483-20.298202 0.155809-31.161845 2.492948-13.017549 2.804566-43.014563 0.785278-54.221609-1.869711-10.600013-2.505412-20.112478-1.396051-29.915371-4.362658-29.734009-8.993308-58.791182-15.880076-82.890506-30.538608-79.702026-48.481597-127.733023-103.494717-157.678932-201.928751-4.491668-14.764482-4.497277-31.012267-8.102079-46.742766l-0.623237-19.320344c-3.3848-15.774126 0.440628-49.852719 3.739421-62.946926 3.869678-15.356557 4.691727-29.067768 9.348553-43.003345 17.14587-51.302991 42.469854-93.580888 76.658137-127.763562 13.539821-13.537952 27.001115-25.534015 43.003346-36.770976 3.975628-2.792101 7.674539-6.697927 12.464737-8.725316 4.371384-1.85039 9.893886-2.103424 14.957686-3.116185 7.986157-1.597356 17.40576 3.477662 21.813291 6.232369 15.427606 9.639605 29.427999 33.434789 15.580922 56.09132-6.045398 9.893886-15.725513 15.062389-24.929476 21.813291-6.112707 4.483566-11.3292 10.332644-17.450632 14.957685-7.880207 5.953782-17.722364 19.133372-23.683002 27.422423-4.985895 6.930394-10.968969 13.790363-15.580922 21.190054-9.423342 15.114118-16.533851 32.844584-23.059765 50.482188-3.650922 9.872072-4.113363 19.719215-6.855606 30.538608-3.254543 12.857377-3.735059 27.565768-3.739421 43.626582v13.087974c1.626025 7.173457 0.635078 15.069868 2.492947 22.436528 3.90084 15.474972 6.130781 31.030965 11.841501 44.873056 29.504034 71.541362 78.777143 117.798004 155.185985 142.721247 27.745883 9.055632 76.240568 14.452863 109.689692 5.609132 22.758118-6.014236 45.496293-10.831857 63.570163-21.813291 12.323263-7.485075 24.726923-14.670996 36.147739-23.059764 34.918093-25.633733 59.581446-63.015482 77.281374-105.950271 6.107721-14.814341 7.824116-31.722758 11.841501-48.612477 1.551237-6.519058 0.461819-13.76107 1.869711-19.943581 1.308797-5.752476 0.455586-16.403595-0.623237-21.190054v-9.97179c-2.203142-9.685101-2.539067-20.622909-4.985895-29.292134l-1.869711-11.218264c-3.926392-12.053401-7.515614-24.193433-12.464738-35.524502-9.460113-21.653119-22.938234-38.521026-36.147739-56.09132-5.276323-7.018271-14.363741-17.89874-21.190054-23.059765-5.185331-3.920783-9.804139-8.755855-14.957686-12.464738-8.006101-5.762448-17.590238-10.484091-23.059765-18.697106-12.135045-18.2222-6.738437-45.068752 8.10208-56.09132a56.631666 56.631666 0 0 1 10.595027-6.232369c2.835105-1.195992 6.295939-0.895591 8.725317-2.492948z" fill="#EA4519" p-id="8205"></path></svg>